<?xml version="1.0" encoding="utf-8"?>
<!-- Generator: Adobe Illustrator 18.1.1, SVG Export Plug-In . SVG Version: 6.00 Build 0)  -->
<svg version="1.1" id="Capa_1" xmlns="http://www.w3.org/2000/svg" xmlns:xlink="http://www.w3.org/1999/xlink" x="0px" y="0px"
	 viewBox="-199 201.5 599.5 599.5" enable-background="new -199 201.5 599.5 599.5" xml:space="preserve">
<g>
	<g>
		<g>
			<path fill="#394B5F" d="M341.9,291.3h-482.3c-32.1,0-58.1,26.1-58.1,58.1V653c0,32.1,26.1,58.1,58.1,58.1h482.3
				c32.1,0,58.1-26.1,58.1-58.1V349.5C400,317.4,374,291.3,341.9,291.3z M357.2,653c0,8.4-6.8,15.3-15.3,15.3h-482.3
				c-8.4,0-15.3-6.9-15.3-15.3V349.5c0-8.5,6.9-15.3,15.3-15.3h482.3c8.4,0,15.3,6.8,15.3,15.3V653z"/>
			<path fill="#394B5F" d="M341.9,711.6h-482.3c-32.3,0-58.6-26.3-58.6-58.6V349.5c0-32.3,26.3-58.6,58.6-58.6h482.3
				c32.3,0,58.6,26.3,58.6,58.6V653C400.5,685.3,374.2,711.6,341.9,711.6z M-140.4,291.8c-31.8,0-57.6,25.9-57.6,57.6V653
				c0,31.8,25.9,57.6,57.6,57.6h482.3c31.8,0,57.6-25.9,57.6-57.6V349.5c0-31.8-25.9-57.6-57.6-57.6
				C341.9,291.8-140.4,291.8-140.4,291.8z M341.9,668.8h-482.3c-8.7,0-15.8-7.1-15.8-15.8V349.5c0-8.7,7.1-15.8,15.8-15.8h482.3
				c8.7,0,15.8,7.1,15.8,15.8V653C357.7,661.7,350.6,668.8,341.9,668.8z M-140.4,334.7c-8.2,0-14.8,6.6-14.8,14.8V653
				c0,8.2,6.6,14.8,14.8,14.8h482.3c8.2,0,14.8-6.6,14.8-14.8V349.5c0-8.2-6.6-14.8-14.8-14.8L-140.4,334.7L-140.4,334.7z"/>
		</g>
		<g>
			<path fill="#394B5F" d="M38.4,508.9c-2.2-1.8-4.5-3.4-6.9-5c6.6-7,11.8-15,15.6-23.9c4.2-10,6.4-20.5,6.4-31.4
				c0-10.9-2.1-21.4-6.4-31.4c-4.1-9.6-9.9-18.2-17.3-25.6c-7.4-7.4-16-13.2-25.6-17.3c-10-4.2-20.5-6.4-31.4-6.4
				s-21.4,2.1-31.4,6.4c-9.6,4.1-18.2,9.9-25.6,17.3c-7.4,7.4-13.2,16-17.3,25.6c-4.2,10-6.4,20.5-6.4,31.4
				c0,10.9,2.1,21.4,6.4,31.4c3.8,8.9,9,16.9,15.6,23.9c-2.3,1.6-4.6,3.2-6.9,5c-18.2,14.5-31.3,34.8-36.9,57.3
				c-4.1,16.5-0.4,33.7,10.1,47.1c5,6.4,11.5,11.7,18.7,15.3c7.6,3.8,16.2,5.8,24.7,5.8h98c8.5,0,17.1-2,24.7-5.8
				c7.2-3.6,13.7-8.9,18.7-15.3c10.5-13.4,14.2-30.6,10.1-47.1C69.8,543.7,56.7,523.4,38.4,508.9z M-27.1,410.8
				c20.9,0,37.8,16.9,37.8,37.8c0,10.6-4.6,20.9-12.4,28c-23.8,21.6-63.2,3.9-63.2-28C-65,427.7-48,410.8-27.1,410.8z M21.9,591.7
				h-98c-7.9,0-13.8-7.4-11.9-15.1c3.5-14.3,12.2-27,24-35.6c32-23.3,79-10.1,94.5,25.9c1.4,3.1,2.4,6.4,3.3,9.7
				C35.7,584.2,29.8,591.7,21.9,591.7z"/>
			<path fill="#394B5F" d="M21.9,635h-98c-8.6,0-17.2-2-24.9-5.9c-7.3-3.7-13.8-9-18.9-15.5c-10.6-13.5-14.3-30.9-10.2-47.6
				c5.6-22.6,18.8-43.1,37.1-57.6c2.1-1.6,4.2-3.2,6.4-4.7c-6.5-6.9-11.6-14.9-15.3-23.6c-4.2-10-6.4-20.7-6.4-31.6
				c0-10.9,2.2-21.6,6.4-31.6c4.1-9.7,9.9-18.3,17.4-25.8c7.4-7.4,16.1-13.3,25.8-17.4c10-4.2,20.7-6.4,31.6-6.4s21.6,2.2,31.6,6.4
				c9.7,4.1,18.3,9.9,25.8,17.4c7.4,7.4,13.3,16.1,17.4,25.8c4.2,10,6.4,20.7,6.4,31.6s-2.2,21.6-6.4,31.6
				c-3.7,8.7-8.8,16.7-15.3,23.6c2.2,1.5,4.3,3.1,6.4,4.7c18.3,14.5,31.5,35,37.1,57.6c4.1,16.7,0.4,34-10.2,47.6
				c-5,6.4-11.6,11.8-18.9,15.5C39.1,633,30.5,635,21.9,635z M-27.1,368.4c-10.8,0-21.3,2.1-31.2,6.3c-9.6,4-18.1,9.8-25.5,17.2
				c-7.3,7.3-13.1,15.9-17.2,25.5c-4.2,9.9-6.3,20.4-6.3,31.2s2.1,21.3,6.3,31.2c3.7,8.8,8.9,16.8,15.5,23.7l0.4,0.4l-0.5,0.3
				c-2.3,1.6-4.6,3.2-6.8,5c-18.1,14.4-31.2,34.7-36.8,57.1c-4.1,16.4-0.4,33.4,10,46.7c5,6.3,11.4,11.6,18.5,15.2
				c7.5,3.8,16,5.8,24.5,5.8h98c8.5,0,16.9-2,24.5-5.8c7.2-3.6,13.6-8.8,18.5-15.2c10.4-13.3,14-30.3,10-46.7
				c-5.6-22.4-18.6-42.7-36.8-57.1c-2.2-1.7-4.5-3.4-6.8-5l-0.5-0.3l0.4-0.4c6.6-7,11.8-14.9,15.5-23.7c4.2-9.9,6.3-20.4,6.3-31.2
				s-2.1-21.3-6.3-31.2c-4-9.6-9.8-18.1-17.2-25.5c-7.3-7.3-15.9-13.1-25.5-17.2C-5.8,370.6-16.3,368.4-27.1,368.4z M21.9,592.2h-98
				c-4,0-7.6-1.8-10.1-4.9c-2.4-3.1-3.3-7.1-2.3-10.9c3.6-14.4,12.2-27.2,24.2-35.9c10.5-7.7,23.1-11.7,36.4-11.7
				c25.8,0,48.9,14.9,58.9,37.9c1.4,3.2,2.5,6.4,3.3,9.8c0.9,3.8,0.1,7.8-2.3,10.9C29.5,590.4,25.8,592.2,21.9,592.2z M-27.9,529.8
				c-13,0-25.4,4-35.8,11.5c-11.9,8.6-20.3,21.2-23.9,35.4c-0.9,3.5-0.1,7.2,2.1,10c2.2,2.9,5.6,4.5,9.3,4.5h98c3.6,0,7-1.6,9.3-4.5
				c2.2-2.9,3-6.5,2.1-10c-0.8-3.3-1.9-6.5-3.2-9.6C20.3,544.4-2.5,529.8-27.9,529.8z M-26.2,486.6c-9.8,0-19.7-3.9-27.1-10.6
				c-7.8-7.2-12.2-16.9-12.2-27.4c0-10.2,4-19.9,11.2-27.1c7.2-7.2,16.9-11.2,27.1-11.2c21.1,0,38.3,17.2,38.3,38.3
				c0,10.8-4.6,21.1-12.6,28.4C-8.3,483.3-16.9,486.6-26.2,486.6z M-27.1,411.3c-10,0-19.3,3.9-26.4,10.9c-7,7-10.9,16.4-10.9,26.4
				c0,17.8,14.6,37,38.2,37c9.1,0,17.4-3.2,24.2-9.4c7.8-7.1,12.2-17.1,12.2-27.6C10.2,428-6.6,411.3-27.1,411.3z"/>
		</g>
		<g>
			<path fill="#394B5F" d="M297.8,590H141.7c-11.8,0-21.4,9.6-21.4,21.4c0,11.8,9.6,21.4,21.4,21.4h156.1c11.8,0,21.4-9.6,21.4-21.4
				C319.3,599.6,309.7,590,297.8,590z"/>
			<path fill="#394B5F" d="M297.8,633.3H141.7c-12.1,0-21.9-9.8-21.9-21.9s9.8-21.9,21.9-21.9h156.1c12.1,0,21.9,9.8,21.9,21.9
				S309.9,633.3,297.8,633.3z M141.7,590.5c-11.5,0-20.9,9.4-20.9,20.9c0,11.5,9.4,20.9,20.9,20.9h156.1c11.5,0,20.9-9.4,20.9-20.9
				c0-11.5-9.4-20.9-20.9-20.9H141.7z"/>
		</g>
		<g>
			<path fill="#394B5F" d="M297.8,478.9H141.7c-11.8,0-21.4,9.6-21.4,21.4c0,11.8,9.6,21.4,21.4,21.4h156.1
				c11.8,0,21.4-9.6,21.4-21.4C319.3,488.5,309.7,478.9,297.8,478.9z"/>
			<path fill="#394B5F" d="M297.8,522.2H141.7c-12.1,0-21.9-9.8-21.9-21.9c0-12.1,9.8-21.9,21.9-21.9h156.1
				c12.1,0,21.9,9.8,21.9,21.9C319.8,512.4,309.9,522.2,297.8,522.2z M141.7,479.4c-11.5,0-20.9,9.4-20.9,20.9s9.4,20.9,20.9,20.9
				h156.1c11.5,0,20.9-9.4,20.9-20.9s-9.4-20.9-20.9-20.9H141.7z"/>
		</g>
		<g>
			<path fill="#394B5F" d="M297.8,367.8H141.7c-11.8,0-21.4,9.6-21.4,21.4s9.6,21.4,21.4,21.4h156.1c11.8,0,21.4-9.6,21.4-21.4
				S309.7,367.8,297.8,367.8z"/>
			<path fill="#394B5F" d="M297.8,411.2H141.7c-12.1,0-21.9-9.8-21.9-21.9s9.8-21.9,21.9-21.9h156.1c12.1,0,21.9,9.8,21.9,21.9
				S309.9,411.2,297.8,411.2z M141.7,368.3c-11.5,0-20.9,9.4-20.9,20.9s9.4,20.9,20.9,20.9h156.1c11.5,0,20.9-9.4,20.9-20.9
				s-9.4-20.9-20.9-20.9H141.7z"/>
		</g>
	</g>
</g>
</svg>
