<?xml version="1.0" encoding="utf-8"?>
<!-- Generator: Adobe Illustrator 18.1.1, SVG Export Plug-In . SVG Version: 6.00 Build 0)  -->
<svg version="1.1" id="Capa_1" xmlns="http://www.w3.org/2000/svg" xmlns:xlink="http://www.w3.org/1999/xlink" x="0px" y="0px"
	 viewBox="-470 472 58 58" enable-background="new -470 472 58 58" xml:space="preserve">
<g>
	<path fill="#394B5F" d="M-417.5,479h-47c-3,0-5.5,2.5-5.5,5.5v33c0,3,2.5,5.5,5.5,5.5h47c3,0,5.5-2.5,5.5-5.5v-33
		C-412,481.5-414.5,479-417.5,479z M-415,503.5l-3.5-3.5c-1-1-2.4-1.6-3.9-1.6c-1.5,0-2.9,0.6-3.9,1.6l-9.2,9.2l-3.6-3.6
		c-1-1-2.4-1.6-3.9-1.6s-2.9,0.6-3.9,1.6l-3.8,3.8c-1,1-2.6,1-3.5,0l-0.5-0.5c-2.1-2.1-5.6-2.1-7.8,0l-4.5,4.6v-28.9
		c0-1.4,1.1-2.5,2.5-2.5h47c1.4,0,2.5,1.1,2.5,2.5V503.5z M-415,517.5c0,1.4-1.1,2.5-2.5,2.5h-7.1l-8.8-8.8l9.2-9.2c1-1,2.6-1,3.5,0
		l5.7,5.7V517.5z M-442.1,520l6.6-6.6l6.6,6.6H-442.1z M-467,517.6l6.7-6.7c1-1,2.6-1,3.5,0l0.5,0.5c2.1,2.1,5.6,2.1,7.8,0l3.8-3.8
		c0.9-0.9,2.6-0.9,3.5,0l3.6,3.6l-8.8,8.8h-18.1C-465.8,520-466.9,518.9-467,517.6z M-456.6,484.1c-3.7,0-6.7,3-6.7,6.7
		c0,3.7,3,6.7,6.7,6.7c3.7,0,6.7-3,6.7-6.7C-449.9,487.1-452.9,484.1-456.6,484.1z M-456.6,494.5c-2,0-3.7-1.7-3.7-3.7
		s1.7-3.7,3.7-3.7s3.7,1.7,3.7,3.7S-454.5,494.5-456.6,494.5z"/>
</g>
</svg>
