<?xml version="1.0" encoding="utf-8"?>
<!-- Generator: Adobe Illustrator 18.1.1, SVG Export Plug-In . SVG Version: 6.00 Build 0)  -->
<svg version="1.1" id="Слой_1" xmlns="http://www.w3.org/2000/svg" xmlns:xlink="http://www.w3.org/1999/xlink" x="0px" y="0px"
	 viewBox="163.8031464 49.1881523 850.3936768 850.3936768"
	 enable-background="new 163.8031464 49.1881523 850.3936768 850.3936768" xml:space="preserve">
<rect x="163.8031616" y="51.1070862" display="none" fill="#394B5F" width="850.3936768" height="848.5558472"/>
<g id="layer1">
	<g id="g22249">
		
			<path id="path18706" fill="#FFCD4D" stroke="#FFCD4D" stroke-width="2.7479999" stroke-linecap="round" stroke-linejoin="round" d="
			M427.240448,198.4799805c-82.8280029,55.7519989-137.7700195,152.9500122-137.7700195,263.5599976
			c0,172.9199829,134.1700134,313.2399902,299.5000305,313.2399902S888.5004883,634.9599609,888.5004883,462.039978
			c0-114.1499939-58.5100098-214.0600128-145.8200073-268.8300171c-19.9719849-9.6253967-109.7999878-64.7489929,0,9.9443054
			c27.8709717,18.1029968,52.914978,40.9360046,73.367981,67.654007c50.723999,64.7390137,73.0469971,152.25,61.4840088,235.0800171
			c-11.2119751,85.65802-60.059021,164.2600098-128.960022,211.3200073
			c-67.7139893,47.2919922-154.8699951,61.4530029-233.5100098,39.8099976
			c-83.9220276-22.0910034-155.9000244-86.6069946-191.6100159-168.9199829
			c-38.302002-86.0280151-33.7190247-191.1600037,10.394989-273.7999878
			c22.15802-42.6430054,54.8160095-78.7660065,93.3980103-105.6400146c109.0500488-81.6360016,27.9660034-29.2230072,0-10.1759949
			L427.240448,198.4799805z"/>
		<path id="path17799" fill="#FFCD4D" stroke="#FFCD4D" stroke-width="1.015" d="M460.6404419,812.7700195
			c0.0026855-1.1536255,58.1469727-30.1539917,68.5609741-34.1959839
			c14.3729858-5.5786133,38.0629883-9.5925293,46.460022-7.8720093l6.1029663,1.2504883l-6.8154907,8.1577148
			c-3.7484741,4.4866943-9.9765625,10.3579712-13.8399658,13.0479736
			c-9.322937,6.4904175-32.1329956,14.2520142-49.5950317,16.8759766
			c-12.3009949,1.8483276-50.8760071,3.9230957-50.8729858,2.7363892L460.6404419,812.7700195z M692.1504517,812.133606
			c-26.1080322-1.5767212-28.0939941-1.9406738-52.434021-9.6077271
			c-14.5620117-4.5869751-18.2860107-6.8040161-29.5269775-17.5780029l-12.8640137-12.3280029l5.6801147-1.5908203
			c14.6129761-4.0927734,61.5089722,9.4077148,82.0479736,23.6199951c3.9028931,2.7006836,9.3317871,5.5789185,12.0640259,6.395813
			c6.2277832,1.8618774,23.8469849,10.867981,23.8469849,12.1900024c0,0.5410156-1.1177979,0.838501-2.4840088,0.6610718
			s-13.2150269-0.9705811-26.3309937-1.7625732L692.1504517,812.133606z M407.9704285,777.2026367
			c-10.9299927-3.3969727-23.7609863-7.2894897-28.5140076-8.6499023l-8.6416931-2.4735718l14.6040039-2.5280151
			c8.0319214-1.3903809,23.2709961-4.3018799,33.8640137-6.4697876c29.5409851-6.0455933,59.1299744-4.2894897,78.269989,4.6453247
			l5.1169128,2.3886108l-6.3893127,5.715271c-16.7359924,14.9699707-53.8840027,18.0720215-88.3099976,7.3721924
			L407.9704285,777.2026367z M703.2104492,779.5560303c-14.2150269-5.2376099-27.2009888-14.3530273-23.4840088-16.4840088
			c7.7663574-4.4528809,33.6790161-9.9326782,46.9699707-9.9326782c12.2530518,0,44.5250244,5.0576782,75.3120117,11.8029785
			c5.803772,1.2716064,3.352478,2.3925171-22.0510254,10.0839844c-24.9299927,7.5476074-30.9680176,8.6434937-47.2680054,8.5795288
			c-13.3810425-0.0526123-21.7520142-1.2025146-29.4790039-4.0496216L703.2104492,779.5560303z M538.8404541,763.1340332
			c-12.5450439-3.7241821-38.6480408-33.9949951-43.4070435-50.3380127l-1.3725891-4.7138062l8.5827942,4.4859009
			c4.7204895,2.4672852,14.7650146,6.6403198,22.3210449,9.2733154
			c25.1309814,8.7570801,36.6889648,18.2249756,43.9329834,35.9879761l3.0689697,7.5253296l-13.440979-0.1837158
			c-7.392334-0.1009521-16.2510376-1.0178833-19.6860352-2.0374756L538.8404541,763.1340332z M609.6714478,761.7276611
			c0-5.5490723,14.1679688-23.6459961,23.4279785-29.9240112c4.0864868-2.7706299,13.1589966-6.9644165,20.1610107-9.319397
			c7.0021362-2.3549805,17.1370239-6.4594727,22.5220337-9.1212158l9.7911987-4.8392944l-1.265686,5.166687
			c-3.0582886,12.4840088-22.4330444,37.7620239-34.4920044,45.0020142
			c-6.9252319,4.15802-12.3190308,5.5349121-24.5120239,6.2581177c-14.7030029,0.8720093-15.6329956,0.6802368-15.6329956-3.2235718
			L609.6714478,761.7276611z M484.471405,751.7286377c-21.4769897-7.8483276-36.6739807-25.617981-44.7900085-52.3729858
			c-2.7457886-9.0513306-5.5458984-20.4089966-6.2223816-25.2390137l-1.230011-8.7816162l26.7650146,27.1049805
			c27.618988,27.9699707,33.2519836,36.3400269,34.9700012,51.9639893
			c0.9994202,9.0842285-0.8244019,10.4910278-9.4921875,7.3239136L484.471405,751.7286377z M685.7214355,745.0301514
			c2.3486938-17.9400024,12.5410156-31.6829834,50.3400269-67.8729858l12.1270142-11.6110229l-1.6135864,10.4580078
			c-5.1702271,33.5079956-22.2470093,62.6879883-42.2789917,72.2440186
			c-5.593689,2.668396-12.2999878,4.8607178-14.9030151,4.871582c-4.3734131,0.0183716-4.6523438-0.5960693-3.6713257-8.0894165
			L685.7214355,745.0301514z M374.1813965,733.0221558c-22.8760071-7.2728271-28.7999878-10.2880249-50.7009888-25.802002
			c-12.1260071-8.59021-21.776001-15.8179932-21.4440002-16.0629883c3.002594-2.2062988,74.6619873,5.7952881,80.9389954,9.0377808
			c1.7212219,0.8890991,8.9421997,4.5172729,16.0460205,8.0626831c7.1044006,3.5454102,16.4069824,9.5853882,20.6719971,13.4219971
			l7.7544861,6.9760742l-7.1329041,3.0532837c-11.8540039,5.0745239-32.4559937,5.6605835-46.1340027,1.3123169
			L374.1813965,733.0221558z M768.9313965,734.661438c-4.7617188-0.9591064-9.9262695-2.8223877-11.4769897-4.1408081
			c-3.6580811-3.1104126-0.180481-7.2329712,14.5529785-17.2520142
			c16.302002-11.0859985,34.7089844-16.7919922,61.6160278-19.0980225
			c34.6419678-2.9697876,44.0560303-3.307312,42.9869995-1.5407715c-2.2816162,3.770813-43.210022,30.3690186-52.7630005,34.2890015
			c-22.2789917,9.1422729-37.3909912,11.2730103-54.9169922,7.7432861L768.9313965,734.661438z M411.4613647,707.7324219
			c-12.4799805-9.6483765-23.7009888-26.0830078-26.3479919-38.5910034
			c-1.2653809-5.9794922-1.9821777-22.315979-1.6297913-37.1420288l0.6290894-26.4680176l7.262207,14.2520142
			c3.9942017,7.838501,9.603302,17.7579956,12.4649963,22.0440063
			c13.8980103,20.8170166,21.6530151,49.0289917,17.8420105,64.914978l-1.7990112,7.5009766l-8.4214783-6.510498
			L411.4613647,707.7324219z M759.1813965,693.8063965c1.0516968-21.9570313,4.4343262-32.7940063,14.9520264-47.901001
			c2.4708252-3.5488892,8.4168701-13.9780273,13.2139893-23.1749878l8.7210693-16.7219849l1.3916016,17.1149902
			c1.6734009,20.5820313-1.1243896,46.9840088-6.137207,57.9130249
			c-3.9152222,8.536377-20.7880249,27.0789795-28.4780273,31.2949829l-4.6738281,2.5626831l1.0100708-21.0880127
			L759.1813965,693.8063965z M336.161377,668.7073975c-6.7015991-1.5186157-15.1910095-4.3538208-18.8649902-6.300415
			c-11.9909973-6.3529053-32.4299927-24.4849854-41.4100037-36.7369995
			c-4.8356018-6.59729-11.4769897-14.9730225-14.7590027-18.6119995c-6.7312012-7.4639893-6.3343964-7.8112793,4.2116089-3.6864014
			c4.1207886,1.6118164,12.5180054,3.9423828,18.6600037,5.1793213
			c12.8289795,2.5831299,35.0499878,12.9879761,47.5529785,22.2680054
			c9.5016174,7.0516968,24.2940063,23.9730225,28.8530273,33.0040283c2.7113037,5.371582,2.6645813,5.843811-0.5802307,5.8693237
			c-1.9407959,0.0153198-5.3171997,0.4213257-7.5032043,0.9022217s-9.4576111-0.368103-16.1589966-1.8867188L336.161377,668.7073975
			z M823.7913818,670.2590942c-3.0056763-0.4760742-5.4649048-1.3286133-5.4649048-1.8947144
			c0-4.0452271,12.1539917-20.71698,21.6229858-29.6610107c13.0739746-12.348999,39.9000244-26.8410034,55.9780273-30.2399902
			c5.9575806-1.2595825,14.7520142-3.6104126,19.5429688-5.2241211c10.3220215-3.4768066,12.5540161-2.4573975,5.2919922,2.4174194
			c-2.871582,1.9276123-8.298584,8.1851196-12.0599976,13.9060059
			c-11.6240234,17.6779785-17.973999,23.7399902-42.3909912,40.4710083
			c-9.2037964,6.3065186-32.2579956,11.8510132-42.5180054,10.2260132L823.7913818,670.2590942z M352.7913513,643.2111206
			c-5.1528931-6.1676025-7.6175842-11.8969727-10.1029968-23.4860229c-1.808197-8.430481-3.2875061-18.8660278-3.2875061-23.1900024
			c0-11.3220215,7.254303-45.7949829,11.7380066-55.7810059c3.7731934-8.4030762,3.8273926-8.435791,4.0010071-2.4107056
			c0.0967712,3.359375,3.2904968,18.934021,7.0971985,34.6119995c4.3362122,17.8569946,6.9308167,33.4990234,6.9468994,41.8770142
			c0.0253601,13.2299805-4.3887024,33.2520142-7.8079834,35.4169922c-0.9727783,0.6159668-4.8356934-2.5510864-8.5843201-7.0379028
			L352.7913513,643.2111206z M816.6013794,645.6479492c-8.048584-20.835022-7.7418213-34.4559937,1.6376953-72.6929932
			c3.2962036-13.4370117,6.0045776-26.8969727,6.0186157-29.9099731c0.0829468-17.802002,8.8026733,2.3088989,13.9680176,32.2150269
			c4.9650269,28.7449951-1.4697266,62.2379761-13.742981,71.5350342l-5.7542114,4.3585815l-2.1270142-5.5057983
			L816.6013794,645.6479492z M299.931366,588.1239624c-14.2460022-5.1832275-28.5140076-16.664978-37.0220032-29.7940063
			c-3.8377991-5.921875-12.3079987-21.7919922-18.822998-35.2669678l-11.8450012-24.5l9.3627014,5.5150757
			c5.1495056,3.0333252,14.5899963,9.2354736,20.9779968,13.78302c6.3883057,4.5471191,14.7510071,10.2180176,18.5840149,12.6019897
			c14.3880005,8.947876,30.7109985,35.0360107,33.6319885,53.7529907c1.4754944,9.453186,0.8347168,9.621582-14.8670044,3.9089966
			L299.931366,588.1239624z M864.0313721,589.1774902c0-1.7158203,2.8078003-10.5789795,6.239502-19.6959839
			c7.0233765-18.6589966,16.3179932-30.4140015,33.2719727-42.0780029
			c15.5009766-10.664978,40.7819824-26.7109985,42.0960083-26.7180176
			c2.09729-0.012085-23.9459839,51.8510132-30.8389893,61.4140015
			c-8.0665283,11.1900024-21.4019775,21.0830078-35.5750122,26.3900146
			c-12.3449707,4.6229248-15.1939697,4.7520142-15.1939697,0.6887207L864.0313721,589.1774902z M313.761322,562.8355103
			c-5.3479919-14.6439819-5.4133911-33.1630249-0.1784363-50.5280151
			c4.2573242-14.1220093,29.7720032-56.5029907,29.677002-49.2949829
			c-0.3134155,23.6970215-4.2843933,71.2160034-6.5705872,78.6259766
			c-3.9009094,12.6450195-9.9096985,24.4069824-14.7680054,28.90802c-3.9299927,3.6411743-4.059082,3.5194092-8.1604004-7.7111816
			L313.761322,562.8355103z M857.5413818,570.4099121c-4.7988892-5.4594116-12.5939941-22.7990112-15.1779785-33.7630005
			c-2.0308228-8.616272-6.5880127-74.7640076-5.2512207-76.2219849
			c1.4868774-1.6216125,25.4459839,39.0059814,29.1430054,49.4179688
			c6.121582,17.2399902,6.0623779,41.1820068-0.1345825,54.4589844c-2.4827271,5.3189697-4.7241211,9.6708984-4.980896,9.6708984
			c-0.2567139,0-1.8760986-1.6032715-3.5985718-3.5629883L857.5413818,570.4099121z M277.4113464,497.4099121
			c-18.17099-12.2600098-28.4309998-32.9769897-34.2769928-69.2149963
			c-1.6442108-10.1910095-3.6303101-20.2690125-4.4136047-22.3959961c-1.0926971-2.9664001,0.2447205-2.4447021,5.7462006,2.2416077
			c3.9436951,3.359314,9.3560944,7.6582947,12.0279846,9.5531921c8.3636169,5.9324951,29.6790161,38.4360046,33.5740051,51.197998
			c4.4035034,14.4250183,4.9573975,35.9570007,0.9250183,35.9570007c-1.4871826,0-7.5991821-3.3026733-13.5820007-7.3394775
			L277.4113464,497.4099121z M886.5614014,489.5956421c1.4719849-17.8420105,6.0615234-31.2600098,15.4069824-45.0440063
			c6.9901123-10.3110046,36.9520264-41.6000061,39.835022-41.6000061c0.8927002,0,0.7410889,2.3765869-0.336792,5.281189
			c-1.0780029,2.9046936-3.2158813,13.2120056-4.7509766,22.9049988
			c-5.3969727,34.0769958-16.7630005,55.9320068-34.835022,66.9830322
			c-16.0949707,9.8417969-16.802002,9.4484253-15.3189697-8.5239868L886.5614014,489.5956421z M298.6113586,479.6064453
			c-0.9026184-7.4014893-0.2953796-15.0669861,1.8951111-23.9230042
			c5.4889832-22.1910095,11.57901-32.2860107,30.9150085-51.2449951
			c9.8519897-9.6599121,17.9129944-17.0960083,17.9129944-16.5249939c0,0.5711365-1.4299011,5.7915039-3.1777039,11.6010132
			c-9.6740112,32.1560059-15.7220154,49.7890015-19.2940063,56.2489929
			c-5.4876099,9.9248047-23.6790161,34.7339783-25.4680176,34.7339783c-0.8000488,0-2.0523987-4.901123-2.7828979-10.8909912
			H298.6113586z M870.4713745,480.6603394c-16.1190186-19.5849915-24.7919922-39.5069885-39.1500244-89.9249878
			l-1.4495239-5.0899048l4.9321899,5.0899048c2.7128296,2.7994995,11.6589966,11.7919922,19.8800049,19.9840088
			c12.7369995,12.6900024,15.7440186,17.0580139,20.3250122,29.5220032
			c5.7166748,15.553009,8.4204712,38.0149841,5.5125732,45.79599c-1.6987305,4.5457764-2.0299072,4.3685913-10.0499878-5.3761902
			L870.4713745,480.6603394z M284.5813293,413.352356c-15.8609924-9.9093018-22.1959839-31.8640137-19.6990051-68.2770081
			c0.8501587-12.3999939,1.5678101-25.4500122,1.5948181-29.0010071c0.0476074-6.2757874,0.2377014-6.1341858,6.8294983,5.0899048
			c3.7293091,6.3500061,8.0187073,12.9509888,9.5321045,14.6679993
			c4.0868835,4.6387939,11.9329834,23.8680115,14.7969971,36.2649841
			c2.5171814,10.8959961,1.8946838,22.3410034-2.0265198,37.2600098c-2.3695984,9.0158997-2.7627869,9.1583862-11.0279846,3.9949951
			L284.5813293,413.352356z M885.4813843,412.6213684c-1.612915-2.9094849-2.5447998-12.381012-2.5540161-25.9590149
			c-0.0136108-20.0280151,0.3912354-22.2130127,6.4138794-34.6119995c3.5358276-7.278595,10.335022-19.4079895,15.1090088-26.95401
			l8.6807861-13.7200012l1.7037964,19.8280029c2.9957275,34.8619995,0.8551025,54.2919922-7.7468872,70.3190002
			c-3.5267944,6.5708923-13.9140015,15.678009-17.882019,15.678009c-0.6522827,0-2.3286743-2.0614014-3.7254028-4.5809021
			L885.4813843,412.6213684z M303.6313782,399.780365c0-17.2139893,9.870697-36.0830078,26.9179993-51.4559937
			c7.1772156-6.4725952,42.0190125-26.8120117,45.9299927-26.8120117c0.5864258,0-1.7536011,3.4356995-5.2001953,7.6348877
			s-11.6419983,15.881012-18.2120056,25.9590149c-13.1600037,20.1849976-26.1549988,34.8819885-38.8630066,43.9519958
			c-10.1219788,7.2244873-10.571991,7.255188-10.571991,0.7225952L303.6313782,399.780365z M866.9813843,399.6289673
			c-11.7810059-7.9761047-28.5830078-25.1860046-32.8690186-33.6679993
			c-5.8602295-11.5960083-15.8920288-26.4400024-23.1199951-34.2099915
			c-3.6154785-3.8865967-6.5736084-7.8405151-6.5736084-8.786499s9.001709,3.1029053,20.0040283,8.9975891
			c15.6829834,8.4025879,22.7509766,13.7019958,32.7249756,24.5329895
			c12.6790161,13.769989,15.5209961,19.7720032,19.8259888,41.8739929c1.56073,8.0119934,0.2295532,8.1798096-9.9921875,1.2590942
			L866.9813843,399.6289673z M306.2413635,331.3019714c-12.868988-22.3450012-12.3710022-36.8680115,2.8432922-82.9140167
			l5.6614075-17.1350098l6.7180176,20.8789978c5.2934875,16.4520111,6.7130737,24.187027,6.6947021,36.4760284
			c-0.0256348,17.1140137-5.4019165,34.9370117-13.4190063,44.4859924l-4.4284973,5.2746887l-4.0700989-7.0675049
			L306.2413635,331.3019714z M866.6713867,335.4639587c-1.1904297-1.5147095-4.7294922-7.7929993-7.8649292-13.9519958
			c-5.3013306-10.4140015-5.6915894-12.7659912-5.5731812-33.5939941
			c0.1135864-19.9880066,0.7880859-24.1470032,6.2728271-38.6829987c3.7125854-9.839386,6.604187-15.07901,7.3040771-13.2340088
			c8.7062988,22.951004,17.0209961,53.9140167,17.0640259,63.5480194
			c0.0387573,8.6026917-6.4456177,27.7969971-11.5889893,34.3039856c-2.8236084,3.5723877-3.8422852,3.8646851-5.6138306,1.6104126
			V335.4639587z M326.6413269,323.0389709c6.8439941-22.1119995,35.125-43.2449951,68.7380066-51.3630066
			c19.757019-4.7719116,21.1490173-4.032196,9.4118958,5.0029907c-5.7886963,4.4562073-13.7030029,11.1489868-17.5879822,14.8729858
			c-16.6369934,15.947998-49.1010132,35.9970093-58.3680115,36.0480042c-2.8429871,0.015686-3.309906-0.9549255-2.1937866-4.5610046
			L326.6413269,323.0389709z M845.3513794,326.1566772c-7.0734253-1.8539124-27.9810181-14.6929932-38.9450073-23.9150085
			c-6.0114136-5.0566101-17.3629761-14.4460144-25.2260132-20.8640137
			c-7.8629761-6.4189148-13.9920044-11.9819946-13.6199951-12.3630066c1.8754272-1.9213867,26.9349976,4.6629028,41.46698,10.894989
			c18.6339722,7.9917908,33.9130249,21.0650024,40.8140259,34.9219971
			c6.3037109,12.6589966,5.7670898,14.0130005-4.4890137,11.3250122L845.3513794,326.1566772z M343.7713623,259.9236755
			c-3.0068054-14.1960297-1.2423096-31.2770233,4.4371033-42.9520111
			c2.8074951-5.7709961,10.8439941-17.6230011,17.8600159-26.3370056l12.7550049-15.8450012l1.3890076,13.2890015
			c3.0466919,29.1470032-3.9287109,53.3850098-20.0899963,69.8090057
			c-5.7849121,5.8789063-11.4179993,10.6889954-12.5180054,10.6889954s-2.8247986-3.8937988-3.8328247-8.6528931
			L343.7713623,259.9236755z M821.7913818,259.5953674c-5.5753174-5.2680206-11.6820068-13.8280182-14.8729858-20.8470306
			c-4.8439941-10.6560059-5.4879761-14.6940002-6.1204224-38.3769989l-0.7067261-26.4680023l7.6303711,8.9765015
			c22.1190186,26.0209961,28.1339722,37.2519989,29.7860107,55.6159973
			c1.0996094,12.2200012-1.7827759,30.1060028-4.8442993,30.0580292c-0.7775879-0.0119324-5.6702881-4.0437012-10.8729858-8.9594116
			L821.7913818,259.5953674z M373.4813538,252.1510468c16.9790039-16.4589844,33.980011-22.2820129,64.8930054-22.2269897
			c21.8500061,0.0393677,25.7270203,2.1567078,12.9290161,7.0606995
			c-5.2519226,2.0123901-16.7030029,7.2851868-25.4470215,11.7170105
			c-17.4199829,8.8300018-35.9049988,13.6760101-52.375,13.7310028l-10.6430054,0.0353088l10.6430054-10.3180084V252.1510468z
			 M783.5614014,259.5750732c-6.5579224-1.3720093-20.4190063-6.6476288-30.802002-11.7240143
			c-10.3829956-5.0758972-22.2230225-10.4580078-26.3110352-11.9589844
			c-10.7069702-3.9335938-5.6900024-5.9312134,14.9890137-5.9679871
			c31.7700195-0.0566101,51.9130249,7.3418884,68.8449707,25.2860107l6.8483887,7.2580109l-10.822998-0.1994934
			c-5.9525757-0.1097107-16.1879883-1.321991-22.7459717-2.6940918L783.5614014,259.5750732z M428.3213806,217.7600555
			c-4.1107788-0.8167267-8.0387878-2.0635071-8.7290039-2.7705994c-2.2539063-2.3090973,3.2106934-6.955307,13.7820129-11.7180023
			c15.8710022-7.1504059,40.5669861-6.7021942,63.5289917,1.1529999c9.5635986,3.271698,17.3880005,6.675705,17.3880005,7.5646057
			c0,0.8888702-3.3534851,1.6237946-7.4522095,1.6331024c-4.0986938,0.0092773-17.2890015,1.3657074-29.3120117,3.0142059
			c-23.3289795,3.1988068-37.1699829,3.514801-49.2059937,1.1235046L428.3213806,217.7600555z M710.0313721,217.7186584
			c-6.5578613-0.9136963-19.3449707-2.3515015-28.414978-3.1952057c-9.0704346-0.843689-15.7770386-2.25-14.9039917-3.125
			c3.3560791-3.3641052,32.0910034-11.8999939,44.4140015-13.1940002
			c14.9160156-1.5657043,34.5269775,2.6600037,43.8250122,9.4434052c6.6239014,4.8323059,7.1763916,6.9978943,2.2774048,8.9266052
			c-5.6810303,2.2366028-34.3640137,2.9317017-47.1970215,1.1437073L710.0313721,217.7186584z M400.1513672,210.3370514
			c-4.3508911-17.7599945,8.6787109-39.7859955,33.8439941-57.2089996c6.4559937-4.4698944,13.6560059-9.1631927,16-10.4290009
			l4.2624207-2.3023071l-3.5437012,14.1139984c-4.9864197,19.8610077-10.5880127,30.6710052-22.1060181,42.6580048
			c-8.1540833,8.486908-22.3710022,18.4720001-26.2999878,18.4720001c-0.4715881,0-1.4421082-2.3869934-2.1567993-5.304306
			L400.1513672,210.3370514z M768.4614258,211.5798492c-9.3391724-5.0502014-27.28302-25.2330017-31.8850098-35.8639984
			c-3.8016968-8.7823029-10.4330444-33.2649994-9.3066406-34.3619995c0.3607178-0.3514099,7.1394043,3.6616974,15.0640259,8.9179993
			c16.03302,10.6349945,33.3120117,30.0160065,36.4910278,40.9300079c2.4180298,8.3016052,1.6696777,22.8470001-1.2180176,23.677002
			c-1.0930176,0.3140869-5.2084961-1.1708069-9.1456299-3.2998047L768.4614258,211.5798492z M463.7013855,174.4128571
			c4.1447144-19.7180023,14.4030151-27.8300018,45.625-36.0780029c7.6509094-2.0211945,15.5660095-4.3695068,17.5890198-5.218399
			c6.9772949-2.9277039-2.071228,10.8339996-17.5520325,26.6940002
			c-14.8710022,15.2360077-26.5159912,21.2189941-41.2949829,21.2189941c-5.4577026,0-5.6862183-0.3460541-4.368103-6.6168976
			L463.7013855,174.4128571z M695.2714233,177.6769562c-4.8439941-1.7371063-12.3430176-6.0453033-16.6640015-9.5737
			c-7.3707275-6.0182037-29.6970215-34.0480042-28.2780151-35.5010071
			c0.3569946-0.3657379,4.9953613,0.7143097,10.3079834,2.4001007c5.3121948,1.6858063,15.3460083,4.7151031,22.2960205,6.7317047
			c19.3540039,5.6152954,34.0620117,20.7969971,34.0620117,35.1589966c0,3.3303986-1.2597046,4.1183929-6.4584961,4.0402069
			c-3.5521851-0.0534668-10.4219971-1.5184937-15.2659912-3.2557068L695.2714233,177.6769562z"/>
	</g>
</g>
<g>
	<polygon fill="#FFCD4D" points="822.3685303,390.8435059 590.2356567,316.9516602 364.0122681,380.0712891 
		591.6696167,506.8624878 	"/>
	<path id="rect3614-4" fill="#FFCD4D" d="M441.8850708,529.5388184l12.8708496-0.0383301
		c5.7417908,43.0401001,16.8924866,102.9735718,12.5028687,112.5128174
		c-5.7313538,15.7723389-30.33255,21.6386719-35.427002,3.2333374
		c1.5598145-34.4033813,9.3874207-69.8582764,10.0533142-115.7089233L441.8850708,529.5388184z"/>
	<path id="path3605-7-8" fill="#FFCD4D" d="M612.5137939,379.3634033
		c-8.3677368,6.1522522-24.9760132-6.6673584-27.9088135-1.6240845c-0.3065186,0.5285339-0.1316528,3.5873718-0.1207886,4.4928589
		c6.4573364,7.3415222,19.4044189,7.9341736,27.5483398,1.0717163l0.480896-3.9404602L612.5137939,379.3634033z"/>
	<path id="rect3617-6" fill="#FFCD4D" d="M593.2095947,378.3791809l6.8377075,3.2268677
		c-35.4840088,11.7561951-128.5621033,21.4881592-146.5542603,45.1428223
		c-5.42276,7.2699585-1.7191467,41.2159119-4.0952759,61.7053833l-8.1442566-0.2250671
		c1.8363037-20.0547791-0.6444397-50.0550842,3.4118958-61.4806519
		c4.3933105-11.6368408,21.3858337-26.3841248,148.5470581-48.3702393l0,0l0,0L593.2095947,378.3791809z"/>
	<polygon id="rect3612-5" fill="#FFCD4D" points="438.840332,505.9655151 453.0741882,503.5709839 455.8013,537.3590698 
		441.5674133,539.7536011 	"/>
	<path id="rect3723-0" fill="#FFCD4D" d="M610.9819946,374.3262939c26.1571045-11.4187317,53.2382202-20.936554,84.77948-19.1156006
		c1.4284668-0.4354858,3.6837158,3.3779297-1.4802856,3.3913879c-27.8746338,0.6127625-54.31604,10.6766968-81.1694336,18.0144958
		c-3.4119873,1.5195007-4.1970825-1.4673767-2.1268311-2.2900696L610.9819946,374.3262939z"/>
	<path id="rect3723-1-9" fill="#FFCD4D" d="M611.1405029,382.8113403
		c30.1040039,10.6144409,60.3312988,23.8508911,90.2828979,51.8564758c1.5673828,0.7631226,2.2081909,6.358551-2.8218994,2.0772705
		c-27.3729858-22.5837097-57.2017822-34.7564392-86.3240967-49.9344177c-3.9390259-1.3552551-3.4862061-4.921875-1.1365356-4.002594
		L611.1405029,382.8113403z"/>
	<path id="rect3723-1-2-0" fill="#FFCD4D" d="M593.6783447,375.198822
		c-29.6195068-13.0860596-60.5449829-24.8443909-98.040802-28.5114746
		c-1.6390076-0.5686035-4.7393799,2.0310974,1.3634949,2.8735657c32.8803101,4.9669189,62.9915771,17.0465393,93.8985596,27.0742188
		c3.8602295,1.7303162,5.1281738-0.4638977,2.7749023-1.4367065L593.6783447,375.198822z"/>
	<path id="path3610-0" fill="#FFCD4D" d="M456.8904419,499.3252258
		c-0.3182983,8.9174805-5.5683899,15.9683533-11.7264709,15.7485657
		c-6.1580505-0.2197876-10.8921509-7.6269836-10.5738831-16.5444946c0.315033-8.9176025,5.5626526-15.9723816,11.7208862-15.7572937
		s10.8950806,7.6186218,10.5800476,16.5362244c-0.0001831,0.0056763-0.0003967,0.011322-0.0006104,0.0169983H456.8904419z"/>
	<path id="rect3723-8-8-1-8" fill="#FFCD4D" d="M502.6849365,352.6848145
		c26.9381104,3.8866882,54.1729126,9.3610229,82.2445068,23.8616638c1.4178467,0.3306885,2.381897,3.6859436-2.3016968,1.5081177
		c-25.4348145-11.4161377-52.2468872-16.2764587-78.6619873-23.0274658
		c-3.5223694-0.4880981-3.3881531-2.7006836-1.2790527-2.3420105L502.6849365,352.6848145z"/>
	<path id="path3605-6" fill="#FFCD4D" d="M612.5137939,379.3634033c-6.4951782,6.2951965-21.8184814,5.5305481-28.008606-0.9996338
		c0.1640015-4.5956116,6.5668945-8.0973816,14.3010864-7.8213501c7.7341309,0.2760315,13.8710938,4.2253723,13.7070313,8.8209839
		H612.5137939z"/>
	<path id="rect3723-8-1" fill="#FFCD4D" d="M616.3080444,378.5300293
		c26.1571045-11.4187622,53.2382202-20.936554,84.7794189-19.1156006c1.4284668-0.4355774,3.6837158,3.3778992-1.4802246,3.3913879
		c-27.8746948,0.6127319-54.31604,10.6766968-81.1740112,18.0143433c-3.4119873,1.5195313-4.1970825-1.4673767-2.12677-2.2901001
		L616.3080444,378.5300293z"/>
	<path id="rect3723-8-8-3" fill="#FFCD4D" d="M606.6834717,385.9277649
		c30.4265137,10.8473816,60.9692383,24.3322449,91.1952515,52.664093c1.5836792,0.7763977,2.2172852,6.4059143-2.8602905,2.072113
		c-27.6322632-22.8660889-57.7782593-35.2789307-87.1960449-50.708313
		c-3.9813232-1.3856201-3.5137939-4.9685364-1.1392822-4.0309143L606.6834717,385.9277649z"/>
</g>
<g>
	<polygon fill="#FDCC4F" points="493.1436157,451.9984741 591.6532593,507.43573 591.6528931,507.4649658 591.6693115,507.43573 
		700.2461548,452.270874 700.312439,452.2392578 700.312439,452.2392578 701.25,451.7560425 701.25,429.8547974 
		492.9697876,429.8547974 492.9697876,451.9025269 493.1439209,452.0057983 	"/>
	<path fill="#FDCC4F" d="M592.576355,509.2210083l-0.9356079,0.4466553l-0.0159302-0.0084839l-0.0001221,0.0084229
		l-0.3561401-0.1981812l-0.5100708-0.2717285l-0.078125-0.0009766l0.0233765-0.041626L493.40625,455.0065918v0.000061
		l-0.1347046-0.0750122l-0.3017578-0.1692505v86.4676514h0.064209
		c1.8377686,30.7071533,47.7268677,55.2914429,104.0759277,55.2914429c56.348999,0,102.2380981-24.5842896,104.0758667-55.2914429
		H701.25v-87.2202759l-0.0968018,0.0463257L592.576355,509.2210083z"/>
</g>
</svg>
