<?xml version="1.0" encoding="utf-8"?>
<!-- Generator: Adobe Illustrator 18.1.1, SVG Export Plug-In . SVG Version: 6.00 Build 0)  -->
<svg version="1.1" id="Capa_1" xmlns="http://www.w3.org/2000/svg" xmlns:xlink="http://www.w3.org/1999/xlink" x="0px" y="0px"
	 viewBox="0 0 1000 1000" enable-background="new 0 0 1000 1000" xml:space="preserve">
<g>
	<path fill="#394B5F" d="M917,67.4H83c-45.8,0-83,37.2-83,83v487.4c0,45.7,37.2,82.9,83,82.9h273.8v51.5
		c-52.7,5.7-94.1,50-94.1,104.2v30.9c0,14,11.3,25.3,25.3,25.3h424.1c14,0,25.3-11.3,25.3-25.3v-30.9c0-54.2-41.4-98.5-94.1-104.2
		v-51.5H917c45.8,0,83-37.2,83-82.9V150.4C1000,104.6,962.8,67.4,917,67.4z M686.8,876.4v5.6H313.2v-5.6c0-30.2,24.6-54.8,54.8-54.8
		H632C662.2,821.6,686.8,846.2,686.8,876.4z M932.6,637.8c0,8.6-7,15.5-15.6,15.5H83c-8.6,0-15.6-7-15.6-15.5V150.4
		c0-8.6,7-15.5,15.6-15.5H917c8.6,0,15.6,7,15.6,15.5V637.8z"/>
	<path fill="#394B5F" d="M348.3,431.3h-95.5c-8.9,0-16.1,7.2-16.1,16.1v95.5c0,8.9,7.2,16.2,16.1,16.2h95.5
		c8.9,0,16.2-7.2,16.2-16.2v-95.5C364.5,438.5,357.3,431.3,348.3,431.3z"/>
	<path fill="#394B5F" d="M550.6,431.3h-95.5c-8.9,0-16.1,7.2-16.1,16.1v95.5c0,8.9,7.2,16.2,16.1,16.2h95.5
		c8.9,0,16.2-7.2,16.2-16.2v-95.5C566.7,438.5,559.5,431.3,550.6,431.3z"/>
	<path fill="#394B5F" d="M348.3,229h-95.5c-8.9,0-16.1,7.2-16.1,16.1v95.5c0,8.9,7.2,16.2,16.1,16.2h95.5c8.9,0,16.2-7.2,16.2-16.2
		v-95.5C364.5,236.3,357.3,229,348.3,229z"/>
	<path fill="#394B5F" d="M550.6,229h-95.5c-8.9,0-16.1,7.2-16.1,16.1v95.5c0,8.9,7.2,16.2,16.1,16.2h95.5c8.9,0,16.2-7.2,16.2-16.2
		v-95.5C566.7,236.3,559.5,229,550.6,229z"/>
	<path fill="#394B5F" d="M752.8,431.3h-95.5c-8.9,0-16.1,7.2-16.1,16.1v95.5c0,8.9,7.2,16.2,16.1,16.2h95.5
		c8.9,0,16.2-7.2,16.2-16.2v-95.5C769,438.5,761.7,431.3,752.8,431.3z"/>
</g>
</svg>
