<?xml version="1.0" encoding="utf-8"?>
<!-- Generator: Adobe Illustrator 18.1.1, SVG Export Plug-In . SVG Version: 6.00 Build 0)  -->
<svg version="1.1" id="Capa_1" xmlns="http://www.w3.org/2000/svg" xmlns:xlink="http://www.w3.org/1999/xlink" x="0px" y="0px"
	 viewBox="0 0 1000 1000" enable-background="new 0 0 1000 1000" xml:space="preserve">
<path fill="#394B5F" d="M1000,500C1000,224.3,775.7,0,500,0S0,224.3,0,500c0,102.4,31,197.6,84,277l0,0.3l3.4,5.1
	c3,4.4,6.2,8.5,9.4,12.8c1.3,1.7,2.5,3.5,3.8,5.2c4,5.3,8.1,10.4,12.2,15.5c1.2,1.5,2.4,2.9,3.6,4.4c19.3,23.1,40.4,44.2,63.2,63.2
	c1.4,1.1,2.8,2.3,4.1,3.5c5,4.1,10,8,15.1,11.9c2.1,1.6,4.2,3.1,6.2,4.6c4.9,3.6,9.7,7.1,14.7,10.5c2.7,1.8,5.4,3.5,8.1,5.3
	c6.9,4.5,13.9,8.8,21.1,13c5,2.9,9.9,5.8,15,8.5c3.1,1.6,6.2,3.2,9.3,4.8c5.4,2.8,10.9,5.5,16.4,8c2.8,1.3,5.6,2.5,8.4,3.8
	c6.4,2.8,12.9,5.5,19.4,8.1c2,0.8,4,1.6,6.1,2.4c17.9,6.8,36.3,12.6,55,17.3c0.8,0.2,1.6,0.4,2.3,0.5c8.3,2,16.7,3.8,25.2,5.5
	c2.3,0.4,4.5,0.8,6.8,1.2c7.1,1.3,14.2,2.3,21.3,3.3c2.7,0.4,5.4,0.7,8.2,1c7,0.8,14,1.4,21.1,2c2.6,0.2,5.3,0.5,7.9,0.6
	c9.5,0.5,19.1,0.8,28.7,0.8c9.7,0,19.2-0.3,28.7-0.9c2.6-0.1,5.2-0.4,7.9-0.6c7.1-0.5,14.1-1.1,21.1-2c2.7-0.3,5.5-0.7,8.2-1
	c7.2-1,14.3-2.1,21.3-3.3c2.3-0.4,4.5-0.8,6.8-1.2c8.5-1.6,16.9-3.4,25.1-5.5c0.8-0.2,1.5-0.3,2.3-0.5c18.8-4.7,37.1-10.5,55-17.3
	c2-0.8,4-1.6,6.1-2.4c6.5-2.6,13-5.3,19.3-8.1c2.8-1.2,5.6-2.5,8.4-3.8c5.5-2.6,11-5.3,16.4-8c3.1-1.6,6.2-3.1,9.3-4.8
	c5.1-2.7,10.1-5.6,15-8.5c7.1-4.2,14.2-8.5,21.1-13c2.7-1.8,5.5-3.5,8.1-5.3c5-3.4,9.9-6.9,14.7-10.5c2.1-1.5,4.2-3,6.3-4.6
	c5.1-3.8,10.1-7.8,15.1-11.9c1.4-1.1,2.8-2.3,4.2-3.5c22.8-19,43.9-40.1,63.2-63.2c1.2-1.5,2.4-2.9,3.6-4.4
	c4.2-5.1,8.2-10.3,12.2-15.5c1.3-1.7,2.5-3.5,3.8-5.2c3.1-4.3,6.4-8.4,9.4-12.8l3.5-5.1l0-0.3C969,697.6,1000,602.4,1000,500z
	 M966.7,500c0,82.9-21.8,160.7-59.9,228.2c-27.4-91-109.4-156.2-206.8-161v-0.5h-11.5H600h-10.6c-3.3,0-6.1-2.7-6.1-6.1v-10.7
	c0-3,2.5-5.1,4.6-5.9c107.3-40.3,174.3-207.7,160.2-324.8c-7.3-61-37.5-115.5-81.4-154.9C841.9,131.5,966.7,301.4,966.7,500z
	 M875.6,776.5c-1.4,1.8-2.7,3.6-4.1,5.4c-3.7,4.9-7.5,9.7-11.4,14.5c-0.4,0.5-0.8,0.9-1.2,1.4c-13.5,16.2-28,31.5-43.5,45.7
	c-0.9,0.8-1.8,1.7-2.8,2.5c-4.6,4.2-9.4,8.3-14.1,12.3c-1.5,1.3-3,2.5-4.5,3.7c-4.7,3.8-9.3,7.5-14.1,11.1c-1.6,1.2-3.3,2.4-4.9,3.6
	c-2.8,2-5.5,4-8.3,5.9V700H700v-99.5c92.9,5.4,169,75.2,181.5,167.7C879.6,771,877.7,773.8,875.6,776.5z M718.6,912.2
	c-2.9,1.6-5.9,3.1-9,4.6c-5,2.5-10.1,5-15.2,7.3c-2.5,1.2-5,2.3-7.5,3.4c-6.4,2.8-12.9,5.5-19.4,8c-1.4,0.5-2.7,1.1-4,1.6
	c-16.7,6.2-33.7,11.5-51,15.8c-1.3,0.3-2.5,0.6-3.8,0.9c-7.2,1.7-14.4,3.3-21.7,4.7c-2.2,0.4-4.3,0.8-6.5,1.2
	c-6.5,1.1-13,2.1-19.5,3c-2.5,0.3-5,0.7-7.6,1c-6.5,0.8-13,1.3-19.5,1.8c-2.4,0.2-4.8,0.4-7.3,0.5c-8.9,0.5-17.7,0.8-26.6,0.8
	c-8.9,0-17.8-0.3-26.6-0.8c-2.4-0.1-4.8-0.4-7.3-0.5c-6.5-0.5-13-1-19.5-1.8c-2.5-0.3-5-0.6-7.6-1c-6.5-0.9-13-1.9-19.5-3
	c-2.2-0.4-4.4-0.7-6.5-1.2c-7.3-1.4-14.5-2.9-21.7-4.7c-1.3-0.3-2.5-0.6-3.8-0.9c-17.4-4.3-34.4-9.6-51.1-15.8
	c-1.3-0.5-2.7-1.1-4-1.6c-6.5-2.5-13-5.2-19.4-8c-2.5-1.1-5-2.2-7.5-3.4c-5.1-2.3-10.2-4.8-15.2-7.3c-3-1.5-6-3-9-4.6
	c-4.3-2.3-8.6-4.7-12.8-7.1c-0.6-0.4-1.3-0.8-2-1.1V733.3H300h100h200h100h33.3v170.6c-0.7,0.4-1.3,0.7-2,1.1
	C727.1,907.4,722.9,909.9,718.6,912.2z M220.1,873.2c-4.8-3.6-9.5-7.3-14.1-11.1c-1.5-1.2-3-2.5-4.6-3.7c-4.8-4-9.5-8-14.1-12.2
	c-1-0.8-1.9-1.7-2.8-2.6C169,829.3,154.5,814,141,797.8c-0.4-0.5-0.8-0.9-1.2-1.4c-3.9-4.7-7.7-9.6-11.4-14.5
	c-1.4-1.8-2.7-3.6-4.1-5.4c-2-2.7-3.9-5.5-5.9-8.3C131,675.7,207.1,605.9,300,600.5V700h-66.7v182.6c-2.8-2-5.6-3.9-8.3-5.9
	C223.4,875.5,221.7,874.4,220.1,873.2z M424.9,513.2C345.2,483.7,283.3,347.5,283.3,250c0-2.1,0.3-4.2,0.3-6.3l12.2-15.1
	c27.5-32.7,74.5-42.1,116.9-23.3c17,7.6,35.2,11.4,54,11.4c49.5,0,94-26.9,117.1-69.7c53,17.4,100.4,50.3,132.4,91.6
	c4.9,101.7-54.9,242.2-140,274.2c-15.9,6-26.2,20.6-26.2,37.1v10.8c0,21.7,17.7,39.4,39.4,39.4H600v100H400V600h10.6
	c21.7,0,39.4-17.7,39.4-39.4V550C450,533.6,439.9,518.8,424.9,513.2z M500.7,33.4c0.2,0,0.4,0,0.6,0c8.1,0,16.2,0.5,23.8,1.4
	c82.6,9.2,152.1,66.8,179.2,143.1c-35.3-30.7-78.5-54.3-125-67.1l-14.3-3.9l-5.6,13.8c-15.3,38.1-51.7,62.7-92.7,62.7
	c-14.1,0-27.7-2.9-40.5-8.5c-46.1-20.4-96.5-14.9-133.6,12.1c10.2-33.8,28.7-64.7,54.4-90.3C387.9,55.8,442.2,33.4,500.7,33.4z
	 M666.7,700h-33.3V600h33.3V700z M366.7,700h-33.3V600h33.3V700z M333,64.3c-3.2,2.9-6.5,5.6-9.6,8.7C276.1,120.3,250,183.1,250,250
	c0,110.5,69.8,259.9,163.3,294.4c2,0.7,3.4,3,3.4,5.6v10.6c0,3.3-2.7,6.1-6.1,6.1H400h-88.5H300v0.5c-97.4,4.8-179.4,70-206.8,161
	c-38-67.5-59.8-145.4-59.8-228.2C33.3,301.5,158,131.7,333,64.3z"/>
</svg>
