<?xml version="1.0" encoding="utf-8"?>
<!-- Generator: Adobe Illustrator 18.1.1, SVG Export Plug-In . SVG Version: 6.00 Build 0)  -->
<svg version="1.1" id="Capa_1" xmlns="http://www.w3.org/2000/svg" xmlns:xlink="http://www.w3.org/1999/xlink" x="0px" y="0px"
	 viewBox="0 0 1000 1000" enable-background="new 0 0 1000 1000" xml:space="preserve">
<path fill="#394B5F" d="M978.9,355.5c0.1-0.6,0.3-1.2,0.4-1.9l-1-0.2c-23.6-77.4-65.9-148.2-124.7-207C759.1,52,633.6,0,500,0
	S240.9,52,146.4,146.4C52,240.9,0,366.4,0,500s52,259.1,146.4,353.6S366.4,1000,500,1000s259.1-52,353.6-146.4S1000,633.6,1000,500
	C1000,450.3,992.8,401.8,978.9,355.5z M719.2,97.3c35.3,19.3,68.2,43.3,97.9,71.8c-2.8,7.7-7.5,16.2-14.8,16.2c-0.1,0-0.2,0-0.3,0
	c-6.3-0.2-13.6-2.6-21.3-5.1c-11.7-3.8-24.9-8.2-40-7c-14.7,1.2-27.3,7.4-38.5,12.9c-10.4,5.1-19.4,9.6-25.9,8
	c-6.1-1.5-12.6-9.3-19.2-17.7c-2.9-3.8-4.7-6.5-5.4-8c0.8-1.3,2.4-3.4,3.2-4.5c8.3-10.7,22.3-24.5,35.9-37.8
	C700.6,116.4,710.6,106.6,719.2,97.3z M572.6,47.4c-2.4,15.5-9.1,36-15.2,43.5c-6.7,8.3-18.6,12.1-26.5,8.5
	c-7.9-3.6-14.2-14.9-16.8-30.3c-1.7-10-5-19.1-8.6-27.4C528.2,42,550.6,43.9,572.6,47.4z M175.9,175.9
	c54.4-54.4,120-93.4,191.6-114.9c8.6,28.4,19.2,55.1,29.4,80.2c7.9,19.3,16.8,41.1,14.8,60.9c-0.8,7.6-2.7,17.3-7.5,20.4
	c-4.2,2.7-12.5,3.4-21.4,4.2c-14.6,1.2-32.8,2.7-49.3,14.4c-3.5,2.5-6.8,5-10,7.5c-6.8,5.3-13.3,10.4-19.3,12
	c-5.9,1.7-13.6,0.8-22.4-0.2c-5.1-0.6-10.4-1.2-15.9-1.4c-17.7-0.6-58,7.8-75.5,30.8c-8.7,11.3-11.2,25-7,38.6
	c3.1,10,9.6,17,15.7,22.6c28.1,25.8,66.7,44.1,105.9,50.1c5.6,0.9,11,1.5,16.3,2.2c28.7,3.5,43,6.1,53.9,25.7
	c2.7,4.9,4.9,10.6,7.2,16.8c2.7,7,5.4,14.3,9.4,21.7c11.9,21.8,31.9,34.6,52.3,33.4c15.2-0.9,26.4-8.8,35.4-15.2
	c4.2-2.9,8.1-5.7,11.4-7.1c9-3.8,22.8-0.4,36.9,8.9c9.6,6.4,22.1,17,26.8,31.2c3.5,10.6,1.1,23-5.7,28.7l-61.2,52.3
	c-19.7,16.8-40.8,37.3-41.5,66.9c-0.2,9.4,1.7,18.4,3.4,26.3c1.2,5.6,3.2,14.9,2.1,17.3c-1.1,1-6.4,2.3-9.5,3.1
	c-5.5,1.4-11.8,2.9-18.1,6.1c-30.8,15.6-33.7,52.5-35.6,76.9c-1.4,17.7-8,32.6-14.7,33.2c-5.4,0.5-13.1-8.9-15.8-19.3
	c-1.7-6.5-2.4-13.7-3.3-21.3c-1.2-11-2.5-23.5-7-35.8c-5.7-15.8-15.6-28.8-24.4-40.3c-8.6-11.3-16.7-21.9-19.3-33
	c-2-8.3-1.2-18.3-0.3-28.9c1.1-13.5,2.3-28.7-2-44.2c-6.1-22.1-21.1-37.8-34.4-51.8c-8.7-9.1-16.9-17.8-21.8-27.1
	c-5.9-11.2-5.2-23-4.3-36.7c0.8-12.9,1.7-27.6-3.4-42.7c-5.1-15.1-17.3-23.8-26.3-30.2c-26.4-18.9-51.1-40.4-73.5-64
	c-12-12.6-23.6-26.3-28.2-41.5c-1.2-4-2-7-2.6-9.3c-2.9-10.5-4.5-14.2-10.6-20.9C117.3,243.8,143.9,207.9,175.9,175.9z M500,958.3
	c-122.4,0-237.5-47.7-324.1-134.2C89.3,737.5,41.7,622.4,41.7,500c0-57.9,10.7-114.2,31.1-166.6c7.9,19.4,21.2,35.2,34.8,49.5
	c24.2,25.5,50.9,48.7,79.6,69.2c4,2.9,10.2,7.3,11,9.7c2.5,7.3,1.9,16.2,1.3,26.6c-1,16.5-2.3,37,9,58.6
	c7.6,14.5,18.3,25.7,28.6,36.5c11.3,11.9,21.1,22.1,24.3,34.1c2.3,8.5,1.5,18.9,0.6,29.9c-1,12.7-2.2,27.1,1.3,41.7
	c4.7,19.7,16.4,35.1,26.7,48.7c7.6,10,14.8,19.4,18.3,29.2c2.7,7.6,3.7,16.6,4.7,26.1c0.9,8.8,1.9,17.8,4.3,27.2
	c6.6,25.8,27.6,50.7,55.6,50.7c1.4,0,2.9-0.1,4.4-0.2c29.1-2.7,49.2-30,52.4-71.5c1.3-16,3-37.9,12.9-42.9c2.1-1.1,5.6-1.9,9.3-2.8
	c8.5-2.1,20.2-4.9,29.4-14.4c16.9-17.3,12.2-39.2,8.8-55.2c-1.3-6.2-2.6-12.1-2.5-16.6c0.3-12.5,14.1-25.3,26.9-36.3l61.2-52.2
	c19.9-16.8,27.3-46.4,18.3-73.5c-6.6-20.1-21.6-38.4-43.2-52.8c-26.4-17.6-53.4-22.1-76-12.7c-7.6,3.2-13.9,7.6-19.5,11.5
	c-5.2,3.6-10.5,7.4-13.8,7.6c-3.3,0.2-9.1-4.2-13.3-11.8c-2.6-4.8-4.7-10.5-7-16.4c-2.7-7.2-5.6-14.7-9.7-22.3
	c-21.6-39-55.4-43.1-85.3-46.8c-4.9-0.6-10-1.2-15-2c-31.3-4.8-61.9-19.3-84.1-39.6c-2.8-2.6-3.7-3.7-4-4.2c0-0.1,0-0.2-0.1-0.3
	c2.8-6.4,27.7-15.4,41.5-15c3.9,0.1,8.1,0.6,12.6,1.1c11.5,1.3,24.6,2.8,38.4-1.1c13.9-3.9,24.4-12.1,33.7-19.3
	c2.9-2.3,5.6-4.4,8.3-6.3c7.3-5.1,17.3-6,28.8-6.9c22.8-1.9,61.1-5.1,66.9-61.9c3.1-30.1-8.4-58.2-17.6-80.9
	C425.9,101.9,416,77,408,50.9c17.3-3.5,35-6,52.8-7.5c1,2.3,2,4.5,3,6.8c4.1,9,7.9,17.6,9.3,26c5,29.9,19.5,51.6,40.6,61.2
	c7.6,3.5,15.7,5.1,24,5.1c19.3,0,39-9.1,52.1-25.4c10.6-13.1,19.9-38.6,23.6-61.3c22.7,5.8,44.9,13.3,66.4,22.4
	c-5.8,5.9-12,12-18.2,18.1c-14.6,14.3-29.6,29-39.7,42c-4,5.1-10,12.9-11.7,23.7c-2.9,18.3,8.5,32.9,14,39.9
	c8.5,10.9,21.3,27.4,41.9,32.6c4.4,1.1,8.8,1.6,13,1.6c15.8,0,29.8-6.9,41.4-12.6c8.5-4.2,16.6-8.2,23.4-8.7c6.7-0.5,14.5,2,23.6,5
	c9.6,3.2,20.6,6.7,32.7,7.2c19.5,0.7,35.8-8.6,47.1-25.8c39.2,45.4,68.6,97.3,87.3,153.2c-3.1,2.2-9.3,2.5-24,2.7
	c-6.4,0.1-13.6,0.2-21.3,0.8c-21.4,1.6-38-4.5-57.2-11.6c-12.9-4.8-26.2-9.7-42.1-12.9c-40.1-8-81.5,14.4-105.6,57.1
	c-4.4,7.8-41.9,76.9-14.1,115.1c10.4,14.3,25.1,23.1,36.8,30.2c16.7,10,34,20.4,53.2,28.1c4.1,1.7,8.2,3.2,12.3,4.7
	c14.6,5.4,28.3,10.5,35.1,19.7c5.6,7.7,7.5,20,5.7,37.4c-1.4,13.2-6.3,26.7-11.5,40.9c-11.7,31.9-26.3,71.7,7.9,110.7
	c9.7,11.1,21.4,19.6,34.4,25.2c-6.5,7.4-13.3,14.7-20.4,21.8C737.5,910.7,622.4,958.3,500,958.3z M872.3,767.5
	c-11.9-2.1-22.4-8.2-30.8-17.8c-17.1-19.5-11.8-37.1-0.1-68.9c5.9-16,11.9-32.6,13.8-51c2.9-28.2-1.5-49.8-13.5-66.3
	c-14.2-19.4-35.5-27.3-54.3-34.2c-3.9-1.4-7.6-2.8-11.1-4.2c-16.1-6.5-31.3-15.6-47.4-25.2c-9.4-5.7-19.2-11.5-24.6-18.9
	c-6.6-9.1,1.5-43.2,16.7-70.2c11.4-20.3,34.3-42,61.1-36.7c12.7,2.5,23.9,6.7,35.7,11.1c21.8,8.1,44.3,16.4,74.8,14.1
	c6.4-0.5,12.6-0.6,18.6-0.6c10.8-0.1,23.4-0.3,34.8-4c8,34.1,12.1,69.5,12.1,105.4C958.3,597.4,928.2,690.1,872.3,767.5z"/>
</svg>
