<?xml version="1.0" encoding="utf-8"?>
<!-- Generator: Adobe Illustrator 18.1.1, SVG Export Plug-In . SVG Version: 6.00 Build 0)  -->
<svg version="1.1" id="Layer_1" xmlns="http://www.w3.org/2000/svg" xmlns:xlink="http://www.w3.org/1999/xlink" x="0px" y="0px"
	 viewBox="0 0 1000 1000" enable-background="new 0 0 1000 1000" xml:space="preserve">
<g>
	<g>
		<g>
			<path fill="#394B5F" d="M922,832.1L775.9,575.4c14.8-6.9,23.7-22.7,22.7-40.5l-10.9-90.8l62.2-65.2c13.8-13.8,14.8-37.5,1-54.3
				l-62.2-67.1l12.8-91.8c2-19.7-11.8-39.5-31.6-43.4l-89.9-17.8l-43.4-80C627.8,5.6,606-2.3,586.3,5.6h-1l-82.9,38.5l-81-39.5
				c-8.9-4.9-19.7-5.9-29.6-3c-9.9,3-17.8,9.9-22.7,18.8l-44.4,80l-89.9,15.8c-20.7,3.9-34.6,22.7-32.6,44.4l10.9,90.8l-62.2,65.2
				c-13.8,13.8-14.8,37.5-1,54.3l62.2,67.1L199.2,530c-2,17.8,8.9,34.6,25.7,41.5L77.7,832.1c-3.9,5.9-3,13.8,0,19.7
				c3.9,5.9,9.9,9.9,16.8,9.9h158l72.1,125.4c3.9,5.9,9.9,9.9,16.8,9.9c6.9,0,13.8-3.9,16.8-9.9l141.2-240.9l141.2,243.9
				c3.9,5.9,9.9,9.9,16.8,9.9c6.9,0,13.8-3.9,16.8-9.9l72.1-128.4h158c6.9,0,13.8-3.9,16.8-9.9C926,846,926,838.1,922,832.1z
				 M342.4,937.8l-61.2-105.7c-3.9-5.9-9.9-9.9-16.8-9.9H128.1l136.3-240.9l56.3,9.9l43.4,80c8.9,18.8,30.6,26.7,50.4,18.8h1
				l40.5-18.8l19.7,34.6L342.4,937.8z M399.6,654.4c-1,0-1,0-1,0l-43.4-82c-5.9-9.9-15.8-17.8-27.6-18.8l-90.8-16.8l12.8-90.8
				c2-11.8-2-24.7-9.9-32.6l-61.2-67.1l62.2-65.2c8.9-8.9,12.8-20.7,10.9-32.6l-10.9-89.9c0,0,0-1,1-2l89.9-15.8
				c10.9-2,21.7-8.9,27.6-19.7l44.4-80l81,39.5c10.9,5.9,24.7,5.9,35.5,0l82-37.5c1,0,1,0,1,0l43.4,82c5.9,9.9,15.8,17.8,26.7,18.8
				l89.9,17.8l-12.8,90.8c-2,11.8,2,24.7,9.9,32.6l62.2,67.1l-63.2,65.2c-8.9,8.9-12.8,20.7-10.9,32.6l10.9,90.8l-88.9,14.8
				c-10.9,2-21.7,8.9-27.6,19.7l-44.4,80l-81-39.5c-10.9-5.9-24.7-5.9-35.5,0L399.6,654.4z M735.4,822.3c-6.9,0-13.8,3.9-16.8,9.9
				l-61.2,108.6L518.1,699.8c-1-3-2-4.9-3.9-6.9l-21.7-38.5l6.9-3l81,39.5c5.9,3,11.8,3.9,17.8,3.9c13.8,0,27.6-6.9,34.6-19.7
				l44.4-80l59.2-10.9l135.3,238H735.4z"/>
			<path fill="#394B5F" d="M696.9,348.3c0-108.6-88.9-197.5-197.5-197.5s-197.5,88.9-197.5,197.5s88.9,197.5,197.5,197.5
				S696.9,456.9,696.9,348.3z M499.4,506.3c-86.9,0-158-71.1-158-158s71.1-158,158-158s158,71.1,158,158S586.3,506.3,499.4,506.3z"
				/>
		</g>
	</g>
</g>
</svg>
