<?xml version="1.0" encoding="utf-8"?>
<!-- Generator: Adobe Illustrator 18.1.1, SVG Export Plug-In . SVG Version: 6.00 Build 0)  -->
<svg version="1.1" id="Слой_1" xmlns="http://www.w3.org/2000/svg" xmlns:xlink="http://www.w3.org/1999/xlink" x="0px" y="0px"
	 viewBox="0 0 1000 1000" enable-background="new 0 0 1000 1000" xml:space="preserve">
<path fill="#394B5F" d="M998.3,99c-3.1-6.2-9.9-9.6-16.7-8.6l-85.2,13.1l13.1-85.2c1.1-6.8-2.4-13.5-8.6-16.7
	c-6.2-3.1-13.6-1.9-18.5,2.9l-98.9,98.9c-2.4,2.4-4,5.5-4.5,8.9L763.4,214l-56.6,56.6c-78-72.4-178.9-112.1-286.1-112.1
	c-112.5,0-218.2,43.7-297.6,123.2C43.7,361.1,0,466.8,0,579.2s43.7,218.2,123.2,297.6c79.4,79.4,185.1,123.2,297.6,123.2
	s218.2-43.7,297.6-123.2c79.4-79.4,123.2-185.1,123.2-297.6c0-89.5-27.7-174.9-80-247c-5.2-7.1-15.2-8.7-22.3-3.5
	c-7.1,5.2-8.7,15.2-3.5,22.3c48.3,66.6,73.9,145.5,73.9,228.2c0,214.4-174.4,388.8-388.8,388.8S31.9,793.7,31.9,579.2
	s174.4-388.8,388.8-388.8c98.6,0,191.5,36.4,263.5,102.8l-72.9,72.9c-52.5-47-119.6-72.7-190.5-72.7
	c-157.6,0-285.8,128.2-285.8,285.8s128.2,285.8,285.8,285.8s285.8-128.2,285.8-285.8c0-52.6-14.4-104-41.6-148.7
	c-4.6-7.5-14.4-9.9-21.9-5.3c-7.5,4.6-9.9,14.4-5.3,21.9c24.2,39.6,36.9,85.3,36.9,132c0,140-113.9,253.9-253.9,253.9
	c-140,0-253.9-113.9-253.9-253.9s113.9-253.9,253.9-253.9c62.4,0,121.6,22.4,168,63.4l-73.1,73.1c-26.8-21.7-59.9-33.5-94.8-33.5
	c-83.2,0-150.9,67.7-150.9,150.9s67.7,150.9,150.9,150.9c83.2,0,150.9-67.7,150.9-150.9c0-14.8-2.1-29.5-6.4-43.5
	c-2.5-8.4-11.4-13.2-19.9-10.7c-8.4,2.5-13.2,11.4-10.7,19.9c3.3,11.1,5,22.7,5,34.4c0,65.6-53.4,119-119,119s-119-53.4-119-119
	c0-65.6,53.4-119,119-119c26.4,0,51.5,8.6,72.1,24.3L409.5,568c-6.2,6.2-6.2,16.3,0,22.6c3.1,3.1,7.2,4.7,11.3,4.7s8.2-1.6,11.3-4.7
	l286.3-286.3c0.1-0.1,67.7-67.7,67.7-67.7l101.6-15.7c3.4-0.5,6.5-2.1,8.9-4.5l98.9-98.9C1000.2,112.6,1001.4,105.2,998.3,99
	L998.3,99z M809.8,122.5l60.7-60.7l-8.2,53.4l-60.7,60.7L809.8,122.5z M877.5,190.2l-53.4,8.2l60.7-60.7l53.4-8.2L877.5,190.2
	L877.5,190.2z"/>
</svg>
