<?xml version="1.0" encoding="utf-8"?>
<!-- Generator: Adobe Illustrator 18.1.1, SVG Export Plug-In . SVG Version: 6.00 Build 0)  -->
<svg version="1.1" id="Capa_1" xmlns="http://www.w3.org/2000/svg" xmlns:xlink="http://www.w3.org/1999/xlink" x="0px" y="0px"
	 viewBox="-31 32 937 937" enable-background="new -31 32 937 937" xml:space="preserve">
<g>
	<path fill="#394B5F" d="M482.1,392.9c5.6,0,11,0.9,16.2,2.4l97-118.9c6.2-7.6,17.7-9,25.2-2.6c7.3,6.1,8.3,17,2.2,24.4l-95.9,117.6
		c6.5,9,10.4,20.1,10.4,32.1c0,22.3-13.4,41.6-32.5,50.2H881c13.8,0,25-11.2,25-25V156.6c0-13.8-11.2-25-25-25H403
		c-13.8,0-25,11.2-25,25v207.8l22.6,28.6h81.5V392.9z"/>
	<circle fill="#394B5F" cx="170.3" cy="153.8" r="102.4"/>
	<g>
		<path fill="#394B5F" d="M275.3,924.5c0,13.8-11.2,25-25,25h-42c-13.8,0-25-11.2-25-25V714.9c0-7.4-6-13.4-13.4-13.4l0,0
			c-7.4,0-13.4,6-13.4,13.4v208.6c0,14.3-11.7,26-26,26H89.4c-13.8,0-25-11.2-25-25l-0.2-506c0-6.8-5.5-12.4-12.4-12.4l0,0
			c-6.8,0-12.4,5.5-12.4,12.4v194.6c0,13.8-11.2,25-25,25H-6c-13.8,0-25-11.2-25-25V346.4c0-31.7,25.7-57.3,57.3-57.3H254
			c24.4,0,47.5,11.2,62.7,30.3l61.2,77.2l12.9,16.3c0,0,58,0,91.4,0.1c13.8,0,25,11.2,25,25v19.9c0,13.8-11.2,25-25,25H374
			c-10.7,0-20.8-4.9-27.4-13.3L301,410.9c-2.3-3-6-4.8-9.8-4.8h-3.1c-6.8,0-12.4,5.5-12.4,12.4L275.3,924.5z"/>
	</g>
</g>
</svg>
