<?xml version="1.0" encoding="utf-8"?>
<!-- Generator: Adobe Illustrator 18.1.1, SVG Export Plug-In . SVG Version: 6.00 Build 0)  -->
<svg version="1.1" id="Layer_1" xmlns="http://www.w3.org/2000/svg" xmlns:xlink="http://www.w3.org/1999/xlink" x="0px" y="0px"
	 viewBox="0 0 1000 1000" enable-background="new 0 0 1000 1000" xml:space="preserve">
<g>
	<g>
		<g>
			<path fill="#394B5F" d="M227.2,524.2c-16.5,0-31.9,8.8-40.3,22.8l-24.3,40.5l-1.3-2.6v-49.8l52.4-21
				c17.1-6.8,28.2-23.2,28.2-41.6c0-14.4-7-28-18.7-36.4c-11.7-8.4-26.8-10.7-40.5-6.1l-5.7,1.9l6.5-13c6.5-13,10-27.6,10-42.2
				c0-25.4-20.6-46-46-46c-17.5,0-33.3,9.7-41.2,25.5l-40.1,80.2L32.6,601.7l-0.3,212.8L44.9,879H0v112.9h241.9V879h-48.4V771
				l29.5-44.3L267,610.8c4.8-12.7,7.2-26,7.2-39.5C274.2,545.3,253.1,524.2,227.2,524.2z M193.1,460.6c3.9-1.3,8-0.7,11.4,1.7
				c3.3,2.4,5.2,6.1,5.2,10.2c0,5.2-3.1,9.7-7.9,11.7l-40.5,16.2v-29.1L193.1,460.6z M209.7,911.3v48.4H32.3v-48.4H209.7z
				 M236.8,599.4l-41.6,110.9l-34,50.9V879H77.7l-13.2-66.1V606.4L96,448.8l39.2-78.3c2.3-4.7,7.1-7.6,12.3-7.6
				c7.6,0,13.8,6.2,13.8,13.8c0,9.6-2.3,19.2-6.6,27.8L129,455.9v136.7l31,61.9l54.5-90.9c2.6-4.4,7.5-7.2,12.7-7.2
				c8.1,0,14.8,6.6,14.8,14.8C241.9,580.9,240.2,590.4,236.8,599.4z"/>
			<path fill="#394B5F" d="M955.2,879l12.3-61.4l0.3-212.8l-32.6-164.5l-41.5-84.3c-7.9-15.7-23.6-25.5-41.2-25.5
				c-25.4,0-46,20.6-46,46c0,14.5,3.5,29.2,10,42.2l6.5,13l-5.7-1.9c-13.6-4.6-28.8-2.3-40.5,6.1c-11.7,8.4-18.7,22-18.7,36.5
				c0,18.5,11.1,34.8,28.2,41.6l52.5,21v49.8l-1.3,2.6L813.1,547c-8.4-14.1-23.9-22.8-40.3-22.8c-25.9,0-47,21.1-47,47
				c0,13.5,2.4,26.9,7.2,39.5l42.2,112.6l31.2,47.6v108h-48.4v112.9H1000V879H955.2z M798.2,484.2c-4.8-1.9-7.9-6.5-7.9-11.7
				c0-4.1,1.9-7.8,5.2-10.2c3.3-2.4,7.5-3,11.4-1.7l31.8,10.7v29.1L798.2,484.2z M804.8,710.3l-41.6-110.9c-3.4-9-5.1-18.5-5.1-28.2
				c0-8.1,6.6-14.8,14.8-14.8c5.2,0,10,2.7,12.7,7.2l54.5,90.8l31-61.9V455.9l-25.7-51.4c-4.3-8.6-6.6-18.2-6.6-27.8
				c0-7.6,6.2-13.8,13.8-13.8c5.2,0,10,2.9,12.3,7.6l39.2,78.3l31.5,157.6v206.5L922.3,879h-83.5V761.2L804.8,710.3z M967.7,959.7
				H790.3v-48.4h177.4V959.7z"/>
			<path fill="#394B5F" d="M703.9,298.4h38.1v-96.8h-38.1c-5.1-21.9-13.7-42.5-25.5-61.5l26.9-26.9l-68.4-68.4l-26.9,26.9
				c-19.1-11.8-39.7-20.3-61.5-25.5V8.1h-96.8v38.1c-21.9,5.1-42.5,13.7-61.5,25.5l-26.9-26.9l-68.4,68.4l26.9,26.9
				c-11.8,19.1-20.3,39.7-25.5,61.5h-38.1v96.8h38.1c5.1,21.9,13.7,42.5,25.5,61.5l-26.9,26.9l68.4,68.4l24.7-24.7
				c-0.2,1.6-0.5,3.2-0.5,4.9c0,14.4,7.6,26.9,18.9,34c-1.7,4.5-2.8,9.3-2.8,14.4c0,22.2,18.1,40.3,40.3,40.3h112.9
				c22.2,0,40.3-18.1,40.3-40.3c0-5.1-1-9.9-2.8-14.4c11.3-7.1,18.9-19.7,18.9-34c0-1.5-0.3-2.9-0.4-4.3l24.1,24.1l68.4-68.4
				l-26.9-26.9C690.2,340.9,698.7,320.3,703.9,298.4z M556.7,491.9H443.8c-4.4,0-8.1-3.6-8.1-8.1c0-4.4,3.6-8.1,8.1-8.1h112.9
				c4.4,0,8.1,3.6,8.1,8.1C564.8,488.3,561.1,491.9,556.7,491.9z M572.8,443.5h-16.1H443.8h-16.1c-4.4,0-8.1-3.6-8.1-8.1
				c0-4.4,3.6-8.1,8.1-8.1h145.2c4.4,0,8.1,3.6,8.1,8.1C580.9,439.9,577.3,443.5,572.8,443.5z M516.4,295.4
				c18.7-6.7,32.3-24.4,32.3-45.4c0-26.7-21.7-48.4-48.4-48.4c-26.7,0-48.4,21.7-48.4,48.4c0,21,13.5,38.7,32.3,45.4v99.7h-32.3
				v-42.8l-8-4.7c-34.8-20.2-56.5-57.6-56.5-97.7c0-62.2,50.7-112.9,112.9-112.9S613.2,187.8,613.2,250c0,40.1-21.6,77.5-56.5,97.7
				l-8,4.7v42.8h-32.3V295.4z M500.3,266.1c-8.9,0-16.1-7.2-16.1-16.1s7.2-16.1,16.1-16.1c8.9,0,16.1,7.2,16.1,16.1
				S509.2,266.1,500.3,266.1z M674.7,279.6c-4.5,26.6-14.6,51.2-30.2,73.1l-7.9,11.1l23.1,23.1l-22.8,22.8l-23.1-23.1l-11.1,7.9
				c-3,2.1-6.2,4.2-9.6,6.3c-3.7-2.2-7.8-3.9-12.1-4.8v-25.4c40-26.8,64.5-72.2,64.5-120.6c0-80-65.1-145.2-145.2-145.2
				S355.1,169.9,355.1,250c0,48.4,24.5,93.7,64.5,120.6V396c-4.5,0.9-8.6,2.7-12.4,5c-3.5-2.1-6.8-4.3-9.9-6.4l-11.1-7.9l-23.1,23.1
				l-22.8-22.8l23.1-23.1l-7.9-11.1c-15.6-21.9-25.8-46.5-30.2-73.1l-2.3-13.5h-32.7v-32.3H323l2.3-13.5
				c4.5-26.6,14.6-51.2,30.2-73.1l7.9-11.1l-23.1-23.1l22.8-22.8l23.1,23.1l11.1-7.9c21.9-15.6,46.5-25.8,73.1-30.2l13.5-2.3V40.3
				h32.3V73l13.5,2.3c26.6,4.5,51.2,14.6,73.1,30.2l11.1,7.9l23.1-23.1l22.8,22.8l-23.1,23.1l7.9,11.1
				c15.6,21.9,25.8,46.5,30.2,73.1l2.3,13.5h32.7v32.3H677L674.7,279.6z"/>
			<rect x="483.9" y="556.5" fill="#394B5F" width="32.3" height="32.3"/>
			<rect x="483.9" y="621" fill="#394B5F" width="32.3" height="32.3"/>
			<rect x="483.9" y="685.5" fill="#394B5F" width="32.3" height="32.3"/>
			<rect x="483.9" y="750" fill="#394B5F" width="32.3" height="32.3"/>
		</g>
	</g>
</g>
</svg>
